<svg width="23" height="16" viewBox="0 0 23 16" fill="none" xmlns="http://www.w3.org/2000/svg">
<path d="M22.5938 7.07812C20.4844 2.9375 16.2656 0.125 11.5 0.125C6.69531 0.125 2.47656 2.9375 0.367188 7.07812C0.289062 7.23438 0.25 7.42969 0.25 7.625C0.25 7.85938 0.289062 8.05469 0.367188 8.21094C2.47656 12.3516 6.69531 15.125 11.5 15.125C16.2656 15.125 20.4844 12.3516 22.5938 8.21094C22.6719 8.05469 22.7109 7.85938 22.7109 7.66406C22.7109 7.42969 22.6719 7.23438 22.5938 7.07812ZM11.5 13.25C8.375 13.25 5.875 10.75 5.875 7.625C5.875 4.53906 8.375 2 11.5 2C14.5859 2 17.125 4.53906 17.125 7.625V7.66406C17.125 10.75 14.5859 13.2891 11.5 13.2891V13.25ZM11.5 3.875C11.1484 3.91406 10.7969 3.95312 10.4844 4.03125C10.7188 4.34375 10.8359 4.73438 10.8359 5.16406C10.8359 6.17969 10.0156 7 9 7C8.57031 7 8.17969 6.88281 7.86719 6.64844C7.78906 6.96094 7.75 7.3125 7.75 7.625C7.75 9.69531 9.42969 11.375 11.5 11.375C13.5703 11.375 15.25 9.69531 15.25 7.625C15.25 5.55469 13.5703 3.91406 11.5 3.91406V3.875Z" fill="#49BBBD"/>
</svg>
